<mxfile host="app.diagrams.net" agent="Mozilla/5.0 (Windows NT 10.0; Win64; x64) AppleWebKit/537.36 (KHTML, like Gecko) Chrome/140.0.0.0 Safari/537.36 Edg/140.0.0.0" version="28.2.3">
  <diagram name="第 1 页" id="59JIxrFA7eB-XWToM2pj">
    <mxGraphModel dx="1418" dy="1070" grid="1" gridSize="10" guides="1" tooltips="1" connect="1" arrows="1" fold="1" page="1" pageScale="1" pageWidth="827" pageHeight="1169" math="1" shadow="0">
      <root>
        <mxCell id="0" />
        <mxCell id="1" parent="0" />
        <mxCell id="zrwGf_qTKrh_B8pIaa0E-1" value="" style="rounded=1;whiteSpace=wrap;html=1;" parent="1" vertex="1">
          <mxGeometry x="1030" y="1260" width="280" height="40" as="geometry" />
        </mxCell>
        <mxCell id="poQ2LbPJpgS5kas6tv2_-1" value="" style="rounded=1;whiteSpace=wrap;html=1;fillColor=none;strokeColor=none;" vertex="1" parent="1">
          <mxGeometry x="246" y="563.4700000000003" width="557" height="83.52" as="geometry" />
        </mxCell>
        <mxCell id="poQ2LbPJpgS5kas6tv2_-2" value="" style="rounded=1;whiteSpace=wrap;html=1;fillColor=light-dark(#e6f1e5, #1f2f1e);dashed=1;dashPattern=8 8;strokeColor=none;" vertex="1" parent="1">
          <mxGeometry x="249" y="556" width="578.12" height="541" as="geometry" />
        </mxCell>
        <mxCell id="poQ2LbPJpgS5kas6tv2_-3" value="" style="rounded=1;whiteSpace=wrap;html=1;fillColor=none;strokeColor=none;" vertex="1" parent="1">
          <mxGeometry x="298" y="792.3000000000002" width="174" height="100.12" as="geometry" />
        </mxCell>
        <mxCell id="poQ2LbPJpgS5kas6tv2_-4" value="" style="rounded=1;whiteSpace=wrap;html=1;fontFamily=Times New Roman;fontSize=80;fillColor=light-dark(#FAE4D5,#EDEDED);" vertex="1" parent="1">
          <mxGeometry x="277" y="609.4200000000001" width="493" height="82" as="geometry" />
        </mxCell>
        <mxCell id="poQ2LbPJpgS5kas6tv2_-5" value="" style="rounded=1;whiteSpace=wrap;html=1;fontFamily=Times New Roman;fontSize=80;fillColor=light-dark(#fae4d5, #EDEDED);" vertex="1" parent="1">
          <mxGeometry x="277" y="979.4200000000001" width="493" height="82" as="geometry" />
        </mxCell>
        <mxCell id="poQ2LbPJpgS5kas6tv2_-6" value="" style="shape=cube;whiteSpace=wrap;html=1;boundedLbl=1;backgroundOutline=1;darkOpacity=0.05;darkOpacity2=0.1;fillColor=#F7CAAC;size=60;flipH=1;shadow=1;strokeColor=none;gradientColor=light-dark(#dae8fc, #EDEDED);gradientDirection=north;" vertex="1" parent="1">
          <mxGeometry x="281" y="797.3000000000002" width="90" height="90" as="geometry" />
        </mxCell>
        <mxCell id="poQ2LbPJpgS5kas6tv2_-7" value="Decoder Layer" style="rounded=1;whiteSpace=wrap;html=1;fontSize=45;fontFamily=Times New Roman;fillColor=none;strokeColor=none;" vertex="1" parent="1">
          <mxGeometry x="419" y="998.81" width="283.12" height="45" as="geometry" />
        </mxCell>
        <mxCell id="poQ2LbPJpgS5kas6tv2_-8" value="Decoder Layer" style="rounded=1;whiteSpace=wrap;html=1;fontSize=45;fontFamily=Times New Roman;fillColor=none;strokeColor=none;" vertex="1" parent="1">
          <mxGeometry x="433" y="622.48" width="280.12" height="50.73" as="geometry" />
        </mxCell>
        <mxCell id="poQ2LbPJpgS5kas6tv2_-9" value="" style="shape=cube;whiteSpace=wrap;html=1;boundedLbl=1;backgroundOutline=1;darkOpacity=0.05;darkOpacity2=0.1;fillColor=#F7CAAC;size=60;flipH=1;shadow=1;strokeColor=none;gradientColor=light-dark(#dae8fc, #EDEDED);gradientDirection=north;" vertex="1" parent="1">
          <mxGeometry x="321" y="797.3000000000002" width="90" height="90" as="geometry" />
        </mxCell>
        <mxCell id="poQ2LbPJpgS5kas6tv2_-10" value="" style="shape=cube;whiteSpace=wrap;html=1;boundedLbl=1;backgroundOutline=1;darkOpacity=0.05;darkOpacity2=0.1;fillColor=#F7CAAC;size=60;flipH=1;shadow=1;strokeColor=none;gradientColor=light-dark(#dae8fc, #EDEDED);gradientDirection=north;" vertex="1" parent="1">
          <mxGeometry x="411" y="797.3000000000002" width="90" height="90" as="geometry" />
        </mxCell>
        <mxCell id="poQ2LbPJpgS5kas6tv2_-11" value="..." style="text;html=1;align=center;verticalAlign=middle;resizable=0;points=[];autosize=1;strokeColor=none;fillColor=none;fontSize=50;fontFamily=Times New Roman;" vertex="1" parent="1">
          <mxGeometry x="370.99999999999955" y="807.3000000000002" width="60" height="70" as="geometry" />
        </mxCell>
        <mxCell id="poQ2LbPJpgS5kas6tv2_-12" value="&lt;span style=&quot;text-wrap-mode: nowrap;&quot;&gt;&lt;font style=&quot;font-size: 50px;&quot;&gt;$${h}_{i}$$&lt;/font&gt;&lt;/span&gt;" style="rounded=0;whiteSpace=wrap;html=1;fontSize=80;fillColor=none;strokeColor=none;fontFamily=Times New Roman;" vertex="1" parent="1">
          <mxGeometry x="427" y="836.54" width="104.06" height="66.88" as="geometry" />
        </mxCell>
        <mxCell id="poQ2LbPJpgS5kas6tv2_-13" value="" style="endArrow=classic;html=1;rounded=0;strokeWidth=3;entryX=0.5;entryY=1;entryDx=0;entryDy=0;" edge="1" parent="1" target="poQ2LbPJpgS5kas6tv2_-3">
          <mxGeometry width="50" height="50" relative="1" as="geometry">
            <mxPoint x="385" y="932" as="sourcePoint" />
            <mxPoint x="390" y="886.4200000000001" as="targetPoint" />
          </mxGeometry>
        </mxCell>
        <mxCell id="poQ2LbPJpgS5kas6tv2_-14" style="edgeStyle=orthogonalEdgeStyle;rounded=0;orthogonalLoop=1;jettySize=auto;html=1;exitX=0.5;exitY=0;exitDx=0;exitDy=0;entryX=0.5;entryY=1;entryDx=0;entryDy=0;strokeWidth=3;" edge="1" parent="1" source="poQ2LbPJpgS5kas6tv2_-3" target="poQ2LbPJpgS5kas6tv2_-15">
          <mxGeometry relative="1" as="geometry" />
        </mxCell>
        <mxCell id="poQ2LbPJpgS5kas6tv2_-15" value="" style="ellipse;whiteSpace=wrap;html=1;aspect=fixed;strokeWidth=3;" vertex="1" parent="1">
          <mxGeometry x="368" y="727.5900000000001" width="34" height="34" as="geometry" />
        </mxCell>
        <mxCell id="poQ2LbPJpgS5kas6tv2_-16" style="rounded=0;orthogonalLoop=1;jettySize=auto;html=1;exitX=0;exitY=0.5;exitDx=0;exitDy=0;entryX=1;entryY=0.5;entryDx=0;entryDy=0;endArrow=none;startFill=0;strokeWidth=3;" edge="1" parent="1" source="poQ2LbPJpgS5kas6tv2_-15" target="poQ2LbPJpgS5kas6tv2_-15">
          <mxGeometry relative="1" as="geometry" />
        </mxCell>
        <mxCell id="poQ2LbPJpgS5kas6tv2_-17" style="rounded=0;orthogonalLoop=1;jettySize=auto;html=1;exitX=0.5;exitY=0;exitDx=0;exitDy=0;entryX=0.5;entryY=1;entryDx=0;entryDy=0;strokeWidth=3;endArrow=none;startFill=0;" edge="1" parent="1" source="poQ2LbPJpgS5kas6tv2_-15" target="poQ2LbPJpgS5kas6tv2_-15">
          <mxGeometry relative="1" as="geometry" />
        </mxCell>
        <mxCell id="poQ2LbPJpgS5kas6tv2_-18" style="rounded=0;orthogonalLoop=1;jettySize=auto;html=1;exitX=0.5;exitY=0;exitDx=0;exitDy=0;entryX=0.218;entryY=1.006;entryDx=0;entryDy=0;entryPerimeter=0;strokeWidth=3;" edge="1" parent="1" source="poQ2LbPJpgS5kas6tv2_-15">
          <mxGeometry relative="1" as="geometry">
            <mxPoint x="387" y="727.5900000000001" as="sourcePoint" />
            <mxPoint x="385.47400000000016" y="691.9119999999998" as="targetPoint" />
          </mxGeometry>
        </mxCell>
        <mxCell id="poQ2LbPJpgS5kas6tv2_-19" value="&lt;span style=&quot;text-wrap-mode: nowrap;&quot;&gt;&lt;font&gt;$$i\text{-}th$$&lt;/font&gt;&lt;/span&gt;" style="rounded=0;whiteSpace=wrap;html=1;fontSize=35;fillColor=none;strokeColor=none;fontFamily=Times New Roman;" vertex="1" parent="1">
          <mxGeometry x="309" y="994.9200000000001" width="109.5" height="53" as="geometry" />
        </mxCell>
        <mxCell id="poQ2LbPJpgS5kas6tv2_-20" value="&lt;span style=&quot;text-wrap-mode: nowrap;&quot;&gt;&lt;font&gt;$$(i+1)\text{-}th$$&lt;/font&gt;&lt;/span&gt;" style="rounded=0;whiteSpace=wrap;html=1;fontSize=35;fillColor=none;strokeColor=none;fontFamily=Times New Roman;" vertex="1" parent="1">
          <mxGeometry x="285" y="617.5299999999997" width="150.75" height="61.21" as="geometry" />
        </mxCell>
        <mxCell id="poQ2LbPJpgS5kas6tv2_-29" value="&lt;span style=&quot;text-wrap-mode: nowrap;&quot;&gt;&lt;font&gt;LLM&lt;/font&gt;&lt;/span&gt;" style="rounded=0;whiteSpace=wrap;html=1;fontSize=45;fillColor=none;strokeColor=none;fontFamily=Times New Roman;" vertex="1" parent="1">
          <mxGeometry x="606.12" y="557.21" width="139" height="53" as="geometry" />
        </mxCell>
        <mxCell id="poQ2LbPJpgS5kas6tv2_-30" value="" style="shape=image;verticalLabelPosition=bottom;labelBackgroundColor=default;verticalAlign=top;aspect=fixed;imageAspect=0;editableCssRules=.*;image=data:image/svg+xml,PHN2ZyB4bWxuczp4bGluaz0iaHR0cDovL3d3dy53My5vcmcvMTk5OS94bGluayIgeG1sbnM9Imh0dHA6Ly93d3cudzMub3JnLzIwMDAvc3ZnIiBoZWlnaHQ9IjE3NC45ODA0NzM1MTgzNzE1OCIgd2lkdGg9IjE3NC44MTQ0NjI2NjE3NDMxNiIgZGF0YS1zcG0tYW5jaG9yLWlkPSJhMzEzeC5zZWFyY2hfaW5kZXguMC5pOC40ZmEwM2E4MTdYR09ubCIgdmVyc2lvbj0iMS4xIiB2aWV3Qm94PSI2NCA2NC4xMDAwMDYxMDM1MTU2MiA4OTUuMDUwMDQ4ODI4MTI1IDg5NS45MDAwMjQ0MTQwNjI1IiBjbGFzcz0iaWNvbiI+PHBhdGggY2xhc3M9InNlbGVjdGVkIiBkYXRhLXNwbS1hbmNob3ItaWQ9ImEzMTN4LnNlYXJjaF9pbmRleC4wLmk5LjRmYTAzYTgxN1hHT25sIiBmaWxsPSIjNjA1QkVDIiBkPSJNOTU1IDYwNy4yTDg0My42IDQxMi4xbDQ3LjgtOTEuNmM2LjYtOC43IDguMy0yMS41IDUuNi0zMS44TDgzNS43IDE3OGMtNC43LTcuMy0xMi44LTExLjgtMjEuNS0xMkg1ODYuM2wtNTEtODkuMmMtMy42LTctMTAuNS0xMS44LTE4LjMtMTIuN0gzOTYuN2MtOC45IDAuMi0xNS4yIDYuNy0xOS42IDE0LjRsLTEuOSAzLjEtMTEzLjggMTk1LjFIMTUyLjJjLTktMC4yLTE3LjUgNC4zLTIyLjMgMTJMNjcgNDAwLjFjLTQgOC00IDE3LjUgMCAyNS41bDExMy4xIDE5Ni43LTUxIDg5LjJjLTQgOC00IDE3LjQgMCAyNS41bDU4LjEgMTAyYzQuNyA3LjggMTMuMiAxMi43IDIyLjMgMTIuN2gyMjcuOGw1NC45IDk1LjVjNC4yIDcuMiAxMS42IDExLjkgMTkuOSAxMi44aDEyOWM4LjktMC4yIDE3LjEtNSAyMS41LTEyLjdMNzc1IDc1MC41aDEwMC40YzguOS0wLjggMTYuOS01LjggMjEuNS0xMy41TDk1NSA2MzQuM2M1LjQtOC4zIDUuNC0xOC45IDAtMjcuMXpNODE0LjEgNjIwTDc1NiA1MTIuNSA1MTcgOTMzLjdsLTY1LjMtMTA3LjVIMjEyLjhsNTcuNC0xMDQuM0gzOTJMMTUzIDMwMi4yaDEyNUwzOTYuNyA5MC4zbDU5LjcgMTA0LjMtNjEuMyAxMDcuNUg4NzNsLTYwLjUgMTA2LjggMTIwLjMgMjExSDgxNC4xeiIvPjxwYXRoIGNsYXNzPSIiIGRhdGEtc3BtLWFuY2hvci1pZD0iYTMxM3guc2VhcmNoX2luZGV4LjAuaTYuNGZhMDNhODE3WEdPbmwiIGZpbGw9IiM2MDVCRUMiIGQ9Ik01MTEuNCA2NjAuNWwxNDktMjM4LjlIMzYxLjdsMTQ5LjcgMjM4Ljl6IG0wIDAiLz48L3N2Zz4=;" vertex="1" parent="1">
          <mxGeometry x="739.1200000000002" y="566.1199999999994" width="46.58" height="46.58" as="geometry" />
        </mxCell>
        <mxCell id="poQ2LbPJpgS5kas6tv2_-31" value="" style="endArrow=classic;html=1;rounded=0;strokeWidth=3;" edge="1" parent="1">
          <mxGeometry width="50" height="50" relative="1" as="geometry">
            <mxPoint x="387" y="1109" as="sourcePoint" />
            <mxPoint x="387" y="1064" as="targetPoint" />
          </mxGeometry>
        </mxCell>
        <mxCell id="poQ2LbPJpgS5kas6tv2_-32" value="" style="endArrow=classic;html=1;rounded=0;strokeWidth=3;entryX=0.789;entryY=0.996;entryDx=0;entryDy=0;entryPerimeter=0;" edge="1" parent="1" target="poQ2LbPJpgS5kas6tv2_-5">
          <mxGeometry width="50" height="50" relative="1" as="geometry">
            <mxPoint x="666.0000000000001" y="1108" as="sourcePoint" />
            <mxPoint x="672.5000000000001" y="1040.4700000000003" as="targetPoint" />
          </mxGeometry>
        </mxCell>
        <mxCell id="poQ2LbPJpgS5kas6tv2_-33" value="&lt;span style=&quot;text-wrap-mode: nowrap;&quot;&gt;&lt;font&gt;$$\mathcal{L}_{cl}$$&lt;/font&gt;&lt;/span&gt;" style="rounded=0;whiteSpace=wrap;html=1;fontSize=40;fillColor=none;strokeColor=none;fontFamily=Times New Roman;" vertex="1" parent="1">
          <mxGeometry x="488" y="480" width="81" height="51" as="geometry" />
        </mxCell>
        <mxCell id="poQ2LbPJpgS5kas6tv2_-34" value="" style="html=1;shadow=0;dashed=0;align=center;verticalAlign=middle;shape=mxgraph.arrows2.jumpInArrow;dy=9.81;dx=19.84;arrowHead=39.67;rotation=0;fillColor=#1ba1e2;strokeColor=none;fontColor=#ffffff;" vertex="1" parent="1">
          <mxGeometry x="382" y="497" width="113" height="120.41" as="geometry" />
        </mxCell>
        <mxCell id="poQ2LbPJpgS5kas6tv2_-35" value="" style="html=1;shadow=0;dashed=0;align=center;verticalAlign=middle;shape=mxgraph.arrows2.jumpInArrow;dy=9.81;dx=19.84;arrowHead=39.67;rotation=-180;fillColor=#1ba1e2;strokeColor=none;fontColor=#ffffff;flipV=1;" vertex="1" parent="1">
          <mxGeometry x="561.4600000000002" y="491.28999999999996" width="109" height="120.41" as="geometry" />
        </mxCell>
        <mxCell id="poQ2LbPJpgS5kas6tv2_-36" value="" style="shape=image;verticalLabelPosition=bottom;labelBackgroundColor=default;verticalAlign=top;aspect=fixed;imageAspect=0;editableCssRules=.*;image=data:image/svg+xml,PHN2ZyB4bWxuczp4bGluaz0iaHR0cDovL3d3dy53My5vcmcvMTk5OS94bGluayIgeG1sbnM9Imh0dHA6Ly93d3cudzMub3JnLzIwMDAvc3ZnIiBoZWlnaHQ9IjE3My4zMjI5MDQxMDk5NTQ4MyIgd2lkdGg9IjE1MS43NTg0NTYyMzAxNjM1NyIgdmVyc2lvbj0iMS4xIiB2aWV3Qm94PSIxMjcuMTM0Nzg4NTEzMTgzNiA2NCA3NzcuMDAzMjk1ODk4NDM3NSA4ODcuNDEzMjY5MDQyOTY4OCIgY2xhc3M9Imljb24iPjxwYXRoIGZpbGw9IiM3NUM0RkUiIGQ9Ik04ODguNjUwNjY3IDYzOS42MzczMzNhMTYgMTYgMCAwIDEtMTIuNjgyNjY3IDE4Ljc0MTMzNGwtNzIuMTE3MzMzIDEzLjkwOTMzMyAxNy4yOCA2NC40OTA2NjdhMTYgMTYgMCAwIDEtMzAuOTEyIDguMjc3MzMzbC0yMS43MjgtODEuMDg4YTE2IDE2IDAgMCAxIDEyLjQyNjY2Ni0xOS44NGw4OC45OTItMTcuMTczMzMzYTE2IDE2IDAgMCAxIDE4Ljc0MTMzNCAxMi42OTMzMzN6TTI0OS43MjggMzM4LjM0NjY2N2ExNiAxNiAwIDAgMS05LjM0NCAxOC45MjI2NjZsLTY5LjIyNjY2NyAyOC41NzZhMTYgMTYgMCAwIDEtMTIuMjEzMzMzLTI5LjU3ODY2Nmw1Ni4yNDUzMzMtMjMuMjIxMzM0LTE2LjQyNjY2Ni02MS4yOGExNiAxNiAwIDAgMSAzMC45MTItOC4yNzczMzNsMjAuMDUzMzMzIDc0Ljg0OHpNODE3LjQ4MjY2NyAyNTEuOTY4YTE2IDE2IDAgMCAxIDkuODEzMzMzIDIwLjM4NGwtMjQuMjc3MzMzIDY5LjMzMzMzMyA2NC40MjY2NjYgMTcuNTE0NjY3YTE2IDE2IDAgMSAxLTguMzk0NjY2IDMwLjg4bC04MS4wMTMzMzQtMjIuMDM3MzMzYTE2IDE2IDAgMCAxLTEwLjkwMTMzMy0yMC43MjUzMzRsMjkuOTYyNjY3LTg1LjU0NjY2NmExNiAxNiAwIDAgMSAyMC4zODQtOS44MTMzMzR6TTIzNS41OTQ2NjcgNjUyLjQ4YTE2IDE2IDAgMCAxIDExLjY0OCAxNy42bC0xMC4xMzMzMzQgNzQuMTk3MzMzYTE2IDE2IDAgMCAxLTMxLjcxMi00LjMzMDY2Nmw4LjI0NTMzNC02MC4yODgtNjEuMjI2NjY3LTE2LjY0YTE2IDE2IDAgMSAxIDguNDA1MzMzLTMwLjg4bDc0Ljc3MzMzNCAyMC4zMzA2NjZ6TTQ0My43NTQ2NjcgMTE4LjkwMTMzM2ExNiAxNiAwIDAgMSAyMi41NzA2NjYgMS42MTA2NjdsNDguMTA2NjY3IDU1LjUwOTMzMyA0Ny4yMTA2NjctNDcuMjEwNjY2YTE2IDE2IDAgMSAxIDIyLjYyNCAyMi42MzQ2NjZsLTU5LjM2IDU5LjM2YTE2IDE2IDAgMCAxLTIzLjQwMjY2Ny0wLjg0MjY2NmwtNTkuMzYtNjguNDhhMTYgMTYgMCAwIDEgMS42LTIyLjU4MTMzNHpNNTAyLjI4MjY2NyA4MjIuODY5MzMzYTE2IDE2IDAgMCAxIDIxLjA2NjY2Ni0xLjM2NTMzM2w1OS4zNiA0NS42NjRhMTYgMTYgMCAxIDEtMTkuNTIgMjUuMzY1MzMzbC00OC4yMTMzMzMtMzcuMDk4NjY2LTQ0Ljg2NCA0NC44NjRhMTYgMTYgMCAxIDEtMjIuNjI0LTIyLjYzNDY2N2w1NC43OTQ2NjctNTQuNzk0NjY3eiIvPjxwYXRoIGZpbGw9IiM0M0FFRkMiIGQ9Ik05MDEuMjggNzI3LjU3MzMzM2EyMS4zMzMzMzMgMjEuMzMzMzMzIDAgMCAxLTI5LjE0MTMzMyA3LjgwOEwxNDAuNTY1MzMzIDMxMy4wMTMzMzNhMjEuMzMzMzMzIDIxLjMzMzMzMyAwIDEgMSAyMS4zMzMzMzQtMzYuOTQ5MzMzbDczMS41NzMzMzMgNDIyLjM2OGEyMS4zMzMzMzMgMjEuMzMzMzMzIDAgMCAxIDcuODA4IDI5LjE0MTMzM3oiLz48cGF0aCBmaWxsPSIjNDNBRUZDIiBkPSJNODY0LjUzMzMzMyA1NjYuNDk2YTIxLjMzMzMzMyAyMS4zMzMzMzMgMCAwIDEtMTMuMjI2NjY2IDI3LjExNDY2N0w3MzYgNjMzLjI4bDE0LjMzNiAxMTguODkwNjY3YTIxLjMzMzMzMyAyMS4zMzMzMzMgMCAwIDEtNDIuMzY4IDUuMDk4NjY2bC0xNi4zODQtMTM2YTIxLjMzMzMzMyAyMS4zMzMzMzMgMCAwIDEgMTQuMjQtMjIuNzJsMTMxLjU5NDY2Ny00NS4yOTA2NjZhMjEuMzMzMzMzIDIxLjMzMzMzMyAwIDAgMSAyNy4xMTQ2NjYgMTMuMjI2NjY2ek0zNDIuNCAzODkuNzA2NjY3YTIxLjMzMzMzMyAyMS4zMzMzMzMgMCAwIDEtMTIuODk2IDIyLjY3NzMzM2wtMTExLjIxMDY2NyA0Ni41MDY2NjdhMjEuMzMzMzMzIDIxLjMzMzMzMyAwIDEgMS0xNi40NTg2NjYtMzkuMzZsOTYuMDEwNjY2LTQwLjE2LTE2LjM2MjY2Ni0xMTUuNzMzMzM0YTIxLjMzMzMzMyAyMS4zMzMzMzMgMCAxIDEgNDIuMjQtNS45NzMzMzNsMTguNjc3MzMzIDEzMi4wNTMzMzN6TTg5OS44NCAyODUuMzAxMzMzYTIxLjMzMzMzMyAyMS4zMzMzMzMgMCAwIDEtNy45MjUzMzMgMjkuMTA5MzM0TDE1OC43NzMzMzMgNzM0LjA0OGEyMS4zMzMzMzMgMjEuMzMzMzMzIDAgMCAxLTIxLjE5NDY2Ni0zNy4wMjRMODcwLjcyIDI3Ny4zNzZhMjEuMzMzMzMzIDIxLjMzMzMzMyAwIDAgMSAyOS4xMiA3LjkxNDY2N3oiLz48cGF0aCBmaWxsPSIjNDNBRUZDIiBkPSJNNzQyLjE1NDY2NyAyMzUuOTg5MzMzYTIxLjMzMzMzMyAyMS4zMzMzMzMgMCAwIDEgMTYuNzY4IDI1LjA3NzMzNGwtMjMuNzMzMzM0IDExOS42MDUzMzMgMTA5Ljk1MiA0Ny40NTZhMjEuMzMzMzMzIDIxLjMzMzMzMyAwIDEgMS0xNi45MDY2NjYgMzkuMTY4bC0xMjUuNzcwNjY3LTU0LjI3MmEyMS4zMzMzMzMgMjEuMzMzMzMzIDAgMCAxLTEyLjQ4LTIzLjc0NGwyNy4wOTMzMzMtMTM2LjUxMmEyMS4zMzMzMzMgMjEuMzMzMzMzIDAgMCAxIDI1LjA2NjY2Ny0xNi43Nzg2Njd6TTMyNi42MzQ2NjcgNTk4LjI0QTIxLjMzMzMzMyAyMS4zMzMzMzMgMCAwIDEgMzM5LjczMzMzMyA2MjAuOGwtMTUuNzY1MzMzIDExOS41MDkzMzNhMjEuMzMzMzMzIDIxLjMzMzMzMyAwIDEgMS00Mi4zMDQtNS41Nzg2NjZsMTMuNjIxMzMzLTEwMy4xNzg2NjctMTA4LjI1Ni00NC4xMDY2NjdhMjEuMzMzMzMzIDIxLjMzMzMzMyAwIDAgMSAxNi4xMDY2NjctMzkuNTA5MzMzbDEyMy40OTg2NjcgNTAuMzE0NjY3ek01MTMuNiA2NGEyMS4zMzMzMzMgMjEuMzMzMzMzIDAgMCAxIDIxLjMzMzMzMyAyMS4zMzMzMzN2ODQ0Ljc0NjY2N2EyMS4zMzMzMzMgMjEuMzMzMzMzIDAgMSAxLTQyLjY2NjY2NiAwVjg1LjMzMzMzM2EyMS4zMzMzMzMgMjEuMzMzMzMzIDAgMCAxIDIxLjMzMzMzMy0yMS4zMzMzMzN6Ii8+PHBhdGggZmlsbD0iIzQzQUVGQyIgZD0iTTM5Mi40NjkzMzMgMTc2LjM2MjY2N2EyMS4zMzMzMzMgMjEuMzMzMzMzIDAgMCAxIDMwLjEwMTMzNC0yLjEwMTMzNGw5Mi4wMTA2NjYgODAgOTUuNzk3MzM0LTcxLjg0YTIxLjMzMzMzMyAyMS4zMzMzMzMgMCAwIDEgMjUuNiAzNC4xMzMzMzRMNTI2LjQgMjk4Ljc1MmEyMS4zMzMzMzMgMjEuMzMzMzMzIDAgMCAxLTI2Ljc5NDY2Ny0wLjk3MDY2N2wtMTA1LjAyNC05MS4zMjhhMjEuMzMzMzMzIDIxLjMzMzMzMyAwIDAgMS0yLjEwMTMzMy0zMC4wOTA2NjZ6TTUwMC40NDggNzE2LjkyOGEyMS4zMzMzMzMgMjEuMzMzMzMzIDAgMCAxIDI2LjA2OTMzMy0wLjE3MDY2N2w5NS44OTMzMzQgNzMuMDY2NjY3YTIxLjMzMzMzMyAyMS4zMzMzMzMgMCAwIDEtMjUuODU2IDMzLjkzMDY2N2wtODIuNzg0LTYzLjA3Mi05Mi4wNTMzMzQgNzIuMDQyNjY2YTIxLjMzMzMzMyAyMS4zMzMzMzMgMCAxIDEtMjYuMjkzMzMzLTMzLjZsMTA1LjAyNC04Mi4xOTczMzN6Ii8+PHBhdGggZmlsbD0iIzQzQUVGQyIgZD0iTTM4OC4xNiAyOTUuNTMwNjY3YTIxLjMzMzMzMyAyMS4zMzMzMzMgMCAwIDEgMTkuMi0xLjY5NmwxMDcuMjc0NjY3IDQyLjkxMiAxMTYuMTgxMzMzLTM0LjQyMTMzNGEyMS4zMzMzMzMgMjEuMzMzMzMzIDAgMCAxIDI3LjA4MjY2NyAxNi44bDE3LjA0NTMzMyA5OC4wMjY2NjcgNzcuMDM0NjY3IDcyLjc1NzMzM2EyMS4zMzMzMzMgMjEuMzMzMzMzIDAgMCAxLTAuNDI2NjY3IDMxLjQxMzMzNGwtODEuODY2NjY3IDczLjI1ODY2Ni0zMC4zNzg2NjYgMTIxLjQ5MzMzNGEyMS4zMzMzMzMgMjEuMzMzMzMzIDAgMCAxLTI5LjE5NDY2NyAxNC40TDUxMi40NDggNjg4bC0xMDYuNTA2NjY3IDM0LjA4YTIxLjMzMzMzMyAyMS4zMzMzMzMgMCAwIDEtMjcuNzc2LTE4LjY4OGwtOC4zMDkzMzMtMTA3Ljk3ODY2Ny0xMDAuNDQ4LTYyLjc3MzMzM2EyMS4zMzMzMzMgMjEuMzMzMzMzIDAgMCAxLTEuNDkzMzMzLTM1LjE1NzMzM2wxMDEuODY2NjY2LTc2LjM5NDY2NyA4LjM4NC0xMDkuMDg4YTIxLjMzMzMzMyAyMS4zMzMzMzMgMCAwIDEgOS45OTQ2NjctMTYuNDh6IG0zMC4zMjUzMzMgNDguNzA0bC02LjkxMiA4OS43NzA2NjZhMjEuMzMzMzMzIDIxLjMzMzMzMyAwIDAgMS04LjQ2OTMzMyAxNS40MjRsLTg0LjY5MzMzMyA2My41MzA2NjcgODMuMiA1MmEyMS4zMzMzMzMgMjEuMzMzMzMzIDAgMCAxIDkuOTYyNjY2IDE2LjQ0OGw3LjA2MTMzNCA5MS44MTg2NjcgODguNDU4NjY2LTI4LjMwOTMzNGEyMS4zMzMzMzMgMjEuMzMzMzMzIDAgMCAxIDE1LjAwOCAwLjc1NzMzNGw4MS45MiAzNS42MjY2NjYgMjUuODU2LTEwMy40MjRhMjEuMzMzMzMzIDIxLjMzMzMzMyAwIDAgMSA2LjQ3NDY2Ny0xMC43MzA2NjZsNjkuNDYxMzMzLTYyLjE0NC02NS4zMTItNjEuNjk2YTIxLjMzMzMzMyAyMS4zMzMzMzMgMCAwIDEtNi4zNzg2NjYtMTEuODUwNjY3bC0xNC4xNTQ2NjctODEuNDE4NjY3LTEwMC4zMiAyOS43MTczMzRhMjEuMzMzMzMzIDIxLjMzMzMzMyAwIDAgMS0xMy45NzMzMzMtMC42NGwtODcuMTg5MzM0LTM0Ljg4eiIvPjxwYXRoIGZpbGw9IiM3NUM0RkUiIGQ9Ik01MTMuMjE2IDM0My4zMDY2NjdhMTYgMTYgMCAwIDEgMTQuNTE3MzMzIDguNTEybDM2LjA4NTMzNCA2OC4xNiA4NS4yNDgtOC4xMDY2NjdhMTYgMTYgMCAwIDEgMTUuNDk4NjY2IDIzLjY5MDY2N2wtNDAuOTI4IDczLjY2NCA0MC4yNTYgNjAuMzczMzMzYTE2IDE2IDAgMCAxLTEzLjMxMiAyNC44ODUzMzNoLTg1Ljc2bC0zNi43NjggNzcuNmExNiAxNiAwIDAgMS0yOC45Mzg2NjYtMC4wMzJsLTMyLjcxNDY2Ny02OS41MjUzMzMtNzMuMjkwNjY3LTguMTQ5MzMzYTE2IDE2IDAgMCAxLTExLjU1Mi0yNC43NjhsMzkuNzQ0LTU5LjYyNjY2Ny00OC44NzQ2NjYtNzMuMzEyYTE2IDE2IDAgMCAxIDE0LjkwMTMzMy0yNC44bDgwLjA3NDY2NyA4LjAxMDY2NyAzMS43MTItNjcuMzkyYTE2IDE2IDAgMCAxIDE0LjEwMTMzMy05LjE3MzMzNHogbTEuMjE2IDUxLjc4NjY2NmwtMjIuODkwNjY3IDQ4LjY0YTE2IDE2IDAgMCAxLTE2LjA3NDY2NiA5LjEybC01Ny42NDI2NjctNS43NiAzNi4wMjEzMzMgNTQuMDE2YTE2IDE2IDAgMCAxIDAgMTcuNzZsLTMxLjA3MiA0Ni42MTMzMzQgNTYuMDUzMzM0IDYuMjI5MzMzYTE2IDE2IDAgMCAxIDEyLjcxNDY2NiA5LjA4OGwyMi4xMDEzMzQgNDYuOTY1MzMzIDI2LjU4MTMzMy01Ni4xMzg2NjZhMTYgMTYgMCAwIDEgMTQuNDY0LTkuMTQxMzM0aDY1Ljk5NDY2N2wtMjkuMDc3MzM0LTQzLjYyNjY2NmExNiAxNiAwIDAgMS0wLjY3Mi0xNi42NGwzMC44OTA2NjctNTUuNjA1MzM0LTY1LjYyMTMzMyA2LjI0YTE2IDE2IDAgMCAxLTE1LjY1ODY2Ny04LjQzNzMzM2wtMjYuMTEyLTQ5LjMyMjY2N3oiLz48L3N2Zz4=;" vertex="1" parent="1">
          <mxGeometry x="716.25" y="622.48" width="45" height="51.23" as="geometry" />
        </mxCell>
        <mxCell id="poQ2LbPJpgS5kas6tv2_-37" value="" style="shape=image;verticalLabelPosition=bottom;labelBackgroundColor=default;verticalAlign=top;aspect=fixed;imageAspect=0;editableCssRules=.*;image=data:image/svg+xml,PHN2ZyB4bWxuczp4bGluaz0iaHR0cDovL3d3dy53My5vcmcvMTk5OS94bGluayIgeG1sbnM9Imh0dHA6Ly93d3cudzMub3JnLzIwMDAvc3ZnIiBoZWlnaHQ9IjE3My4zMjI5MDQxMDk5NTQ4MyIgd2lkdGg9IjE1MS43NTg0NTYyMzAxNjM1NyIgdmVyc2lvbj0iMS4xIiB2aWV3Qm94PSIxMjcuMTM0Nzg4NTEzMTgzNiA2NCA3NzcuMDAzMjk1ODk4NDM3NSA4ODcuNDEzMjY5MDQyOTY4OCIgY2xhc3M9Imljb24iPjxwYXRoIGZpbGw9IiM3NUM0RkUiIGQ9Ik04ODguNjUwNjY3IDYzOS42MzczMzNhMTYgMTYgMCAwIDEtMTIuNjgyNjY3IDE4Ljc0MTMzNGwtNzIuMTE3MzMzIDEzLjkwOTMzMyAxNy4yOCA2NC40OTA2NjdhMTYgMTYgMCAwIDEtMzAuOTEyIDguMjc3MzMzbC0yMS43MjgtODEuMDg4YTE2IDE2IDAgMCAxIDEyLjQyNjY2Ni0xOS44NGw4OC45OTItMTcuMTczMzMzYTE2IDE2IDAgMCAxIDE4Ljc0MTMzNCAxMi42OTMzMzN6TTI0OS43MjggMzM4LjM0NjY2N2ExNiAxNiAwIDAgMS05LjM0NCAxOC45MjI2NjZsLTY5LjIyNjY2NyAyOC41NzZhMTYgMTYgMCAwIDEtMTIuMjEzMzMzLTI5LjU3ODY2Nmw1Ni4yNDUzMzMtMjMuMjIxMzM0LTE2LjQyNjY2Ni02MS4yOGExNiAxNiAwIDAgMSAzMC45MTItOC4yNzczMzNsMjAuMDUzMzMzIDc0Ljg0OHpNODE3LjQ4MjY2NyAyNTEuOTY4YTE2IDE2IDAgMCAxIDkuODEzMzMzIDIwLjM4NGwtMjQuMjc3MzMzIDY5LjMzMzMzMyA2NC40MjY2NjYgMTcuNTE0NjY3YTE2IDE2IDAgMSAxLTguMzk0NjY2IDMwLjg4bC04MS4wMTMzMzQtMjIuMDM3MzMzYTE2IDE2IDAgMCAxLTEwLjkwMTMzMy0yMC43MjUzMzRsMjkuOTYyNjY3LTg1LjU0NjY2NmExNiAxNiAwIDAgMSAyMC4zODQtOS44MTMzMzR6TTIzNS41OTQ2NjcgNjUyLjQ4YTE2IDE2IDAgMCAxIDExLjY0OCAxNy42bC0xMC4xMzMzMzQgNzQuMTk3MzMzYTE2IDE2IDAgMCAxLTMxLjcxMi00LjMzMDY2Nmw4LjI0NTMzNC02MC4yODgtNjEuMjI2NjY3LTE2LjY0YTE2IDE2IDAgMSAxIDguNDA1MzMzLTMwLjg4bDc0Ljc3MzMzNCAyMC4zMzA2NjZ6TTQ0My43NTQ2NjcgMTE4LjkwMTMzM2ExNiAxNiAwIDAgMSAyMi41NzA2NjYgMS42MTA2NjdsNDguMTA2NjY3IDU1LjUwOTMzMyA0Ny4yMTA2NjctNDcuMjEwNjY2YTE2IDE2IDAgMSAxIDIyLjYyNCAyMi42MzQ2NjZsLTU5LjM2IDU5LjM2YTE2IDE2IDAgMCAxLTIzLjQwMjY2Ny0wLjg0MjY2NmwtNTkuMzYtNjguNDhhMTYgMTYgMCAwIDEgMS42LTIyLjU4MTMzNHpNNTAyLjI4MjY2NyA4MjIuODY5MzMzYTE2IDE2IDAgMCAxIDIxLjA2NjY2Ni0xLjM2NTMzM2w1OS4zNiA0NS42NjRhMTYgMTYgMCAxIDEtMTkuNTIgMjUuMzY1MzMzbC00OC4yMTMzMzMtMzcuMDk4NjY2LTQ0Ljg2NCA0NC44NjRhMTYgMTYgMCAxIDEtMjIuNjI0LTIyLjYzNDY2N2w1NC43OTQ2NjctNTQuNzk0NjY3eiIvPjxwYXRoIGZpbGw9IiM0M0FFRkMiIGQ9Ik05MDEuMjggNzI3LjU3MzMzM2EyMS4zMzMzMzMgMjEuMzMzMzMzIDAgMCAxLTI5LjE0MTMzMyA3LjgwOEwxNDAuNTY1MzMzIDMxMy4wMTMzMzNhMjEuMzMzMzMzIDIxLjMzMzMzMyAwIDEgMSAyMS4zMzMzMzQtMzYuOTQ5MzMzbDczMS41NzMzMzMgNDIyLjM2OGEyMS4zMzMzMzMgMjEuMzMzMzMzIDAgMCAxIDcuODA4IDI5LjE0MTMzM3oiLz48cGF0aCBmaWxsPSIjNDNBRUZDIiBkPSJNODY0LjUzMzMzMyA1NjYuNDk2YTIxLjMzMzMzMyAyMS4zMzMzMzMgMCAwIDEtMTMuMjI2NjY2IDI3LjExNDY2N0w3MzYgNjMzLjI4bDE0LjMzNiAxMTguODkwNjY3YTIxLjMzMzMzMyAyMS4zMzMzMzMgMCAwIDEtNDIuMzY4IDUuMDk4NjY2bC0xNi4zODQtMTM2YTIxLjMzMzMzMyAyMS4zMzMzMzMgMCAwIDEgMTQuMjQtMjIuNzJsMTMxLjU5NDY2Ny00NS4yOTA2NjZhMjEuMzMzMzMzIDIxLjMzMzMzMyAwIDAgMSAyNy4xMTQ2NjYgMTMuMjI2NjY2ek0zNDIuNCAzODkuNzA2NjY3YTIxLjMzMzMzMyAyMS4zMzMzMzMgMCAwIDEtMTIuODk2IDIyLjY3NzMzM2wtMTExLjIxMDY2NyA0Ni41MDY2NjdhMjEuMzMzMzMzIDIxLjMzMzMzMyAwIDEgMS0xNi40NTg2NjYtMzkuMzZsOTYuMDEwNjY2LTQwLjE2LTE2LjM2MjY2Ni0xMTUuNzMzMzM0YTIxLjMzMzMzMyAyMS4zMzMzMzMgMCAxIDEgNDIuMjQtNS45NzMzMzNsMTguNjc3MzMzIDEzMi4wNTMzMzN6TTg5OS44NCAyODUuMzAxMzMzYTIxLjMzMzMzMyAyMS4zMzMzMzMgMCAwIDEtNy45MjUzMzMgMjkuMTA5MzM0TDE1OC43NzMzMzMgNzM0LjA0OGEyMS4zMzMzMzMgMjEuMzMzMzMzIDAgMCAxLTIxLjE5NDY2Ni0zNy4wMjRMODcwLjcyIDI3Ny4zNzZhMjEuMzMzMzMzIDIxLjMzMzMzMyAwIDAgMSAyOS4xMiA3LjkxNDY2N3oiLz48cGF0aCBmaWxsPSIjNDNBRUZDIiBkPSJNNzQyLjE1NDY2NyAyMzUuOTg5MzMzYTIxLjMzMzMzMyAyMS4zMzMzMzMgMCAwIDEgMTYuNzY4IDI1LjA3NzMzNGwtMjMuNzMzMzM0IDExOS42MDUzMzMgMTA5Ljk1MiA0Ny40NTZhMjEuMzMzMzMzIDIxLjMzMzMzMyAwIDEgMS0xNi45MDY2NjYgMzkuMTY4bC0xMjUuNzcwNjY3LTU0LjI3MmEyMS4zMzMzMzMgMjEuMzMzMzMzIDAgMCAxLTEyLjQ4LTIzLjc0NGwyNy4wOTMzMzMtMTM2LjUxMmEyMS4zMzMzMzMgMjEuMzMzMzMzIDAgMCAxIDI1LjA2NjY2Ny0xNi43Nzg2Njd6TTMyNi42MzQ2NjcgNTk4LjI0QTIxLjMzMzMzMyAyMS4zMzMzMzMgMCAwIDEgMzM5LjczMzMzMyA2MjAuOGwtMTUuNzY1MzMzIDExOS41MDkzMzNhMjEuMzMzMzMzIDIxLjMzMzMzMyAwIDEgMS00Mi4zMDQtNS41Nzg2NjZsMTMuNjIxMzMzLTEwMy4xNzg2NjctMTA4LjI1Ni00NC4xMDY2NjdhMjEuMzMzMzMzIDIxLjMzMzMzMyAwIDAgMSAxNi4xMDY2NjctMzkuNTA5MzMzbDEyMy40OTg2NjcgNTAuMzE0NjY3ek01MTMuNiA2NGEyMS4zMzMzMzMgMjEuMzMzMzMzIDAgMCAxIDIxLjMzMzMzMyAyMS4zMzMzMzN2ODQ0Ljc0NjY2N2EyMS4zMzMzMzMgMjEuMzMzMzMzIDAgMSAxLTQyLjY2NjY2NiAwVjg1LjMzMzMzM2EyMS4zMzMzMzMgMjEuMzMzMzMzIDAgMCAxIDIxLjMzMzMzMy0yMS4zMzMzMzN6Ii8+PHBhdGggZmlsbD0iIzQzQUVGQyIgZD0iTTM5Mi40NjkzMzMgMTc2LjM2MjY2N2EyMS4zMzMzMzMgMjEuMzMzMzMzIDAgMCAxIDMwLjEwMTMzNC0yLjEwMTMzNGw5Mi4wMTA2NjYgODAgOTUuNzk3MzM0LTcxLjg0YTIxLjMzMzMzMyAyMS4zMzMzMzMgMCAwIDEgMjUuNiAzNC4xMzMzMzRMNTI2LjQgMjk4Ljc1MmEyMS4zMzMzMzMgMjEuMzMzMzMzIDAgMCAxLTI2Ljc5NDY2Ny0wLjk3MDY2N2wtMTA1LjAyNC05MS4zMjhhMjEuMzMzMzMzIDIxLjMzMzMzMyAwIDAgMS0yLjEwMTMzMy0zMC4wOTA2NjZ6TTUwMC40NDggNzE2LjkyOGEyMS4zMzMzMzMgMjEuMzMzMzMzIDAgMCAxIDI2LjA2OTMzMy0wLjE3MDY2N2w5NS44OTMzMzQgNzMuMDY2NjY3YTIxLjMzMzMzMyAyMS4zMzMzMzMgMCAwIDEtMjUuODU2IDMzLjkzMDY2N2wtODIuNzg0LTYzLjA3Mi05Mi4wNTMzMzQgNzIuMDQyNjY2YTIxLjMzMzMzMyAyMS4zMzMzMzMgMCAxIDEtMjYuMjkzMzMzLTMzLjZsMTA1LjAyNC04Mi4xOTczMzN6Ii8+PHBhdGggZmlsbD0iIzQzQUVGQyIgZD0iTTM4OC4xNiAyOTUuNTMwNjY3YTIxLjMzMzMzMyAyMS4zMzMzMzMgMCAwIDEgMTkuMi0xLjY5NmwxMDcuMjc0NjY3IDQyLjkxMiAxMTYuMTgxMzMzLTM0LjQyMTMzNGEyMS4zMzMzMzMgMjEuMzMzMzMzIDAgMCAxIDI3LjA4MjY2NyAxNi44bDE3LjA0NTMzMyA5OC4wMjY2NjcgNzcuMDM0NjY3IDcyLjc1NzMzM2EyMS4zMzMzMzMgMjEuMzMzMzMzIDAgMCAxLTAuNDI2NjY3IDMxLjQxMzMzNGwtODEuODY2NjY3IDczLjI1ODY2Ni0zMC4zNzg2NjYgMTIxLjQ5MzMzNGEyMS4zMzMzMzMgMjEuMzMzMzMzIDAgMCAxLTI5LjE5NDY2NyAxNC40TDUxMi40NDggNjg4bC0xMDYuNTA2NjY3IDM0LjA4YTIxLjMzMzMzMyAyMS4zMzMzMzMgMCAwIDEtMjcuNzc2LTE4LjY4OGwtOC4zMDkzMzMtMTA3Ljk3ODY2Ny0xMDAuNDQ4LTYyLjc3MzMzM2EyMS4zMzMzMzMgMjEuMzMzMzMzIDAgMCAxLTEuNDkzMzMzLTM1LjE1NzMzM2wxMDEuODY2NjY2LTc2LjM5NDY2NyA4LjM4NC0xMDkuMDg4YTIxLjMzMzMzMyAyMS4zMzMzMzMgMCAwIDEgOS45OTQ2NjctMTYuNDh6IG0zMC4zMjUzMzMgNDguNzA0bC02LjkxMiA4OS43NzA2NjZhMjEuMzMzMzMzIDIxLjMzMzMzMyAwIDAgMS04LjQ2OTMzMyAxNS40MjRsLTg0LjY5MzMzMyA2My41MzA2NjcgODMuMiA1MmEyMS4zMzMzMzMgMjEuMzMzMzMzIDAgMCAxIDkuOTYyNjY2IDE2LjQ0OGw3LjA2MTMzNCA5MS44MTg2NjcgODguNDU4NjY2LTI4LjMwOTMzNGEyMS4zMzMzMzMgMjEuMzMzMzMzIDAgMCAxIDE1LjAwOCAwLjc1NzMzNGw4MS45MiAzNS42MjY2NjYgMjUuODU2LTEwMy40MjRhMjEuMzMzMzMzIDIxLjMzMzMzMyAwIDAgMSA2LjQ3NDY2Ny0xMC43MzA2NjZsNjkuNDYxMzMzLTYyLjE0NC02NS4zMTItNjEuNjk2YTIxLjMzMzMzMyAyMS4zMzMzMzMgMCAwIDEtNi4zNzg2NjYtMTEuODUwNjY3bC0xNC4xNTQ2NjctODEuNDE4NjY3LTEwMC4zMiAyOS43MTczMzRhMjEuMzMzMzMzIDIxLjMzMzMzMyAwIDAgMS0xMy45NzMzMzMtMC42NGwtODcuMTg5MzM0LTM0Ljg4eiIvPjxwYXRoIGZpbGw9IiM3NUM0RkUiIGQ9Ik01MTMuMjE2IDM0My4zMDY2NjdhMTYgMTYgMCAwIDEgMTQuNTE3MzMzIDguNTEybDM2LjA4NTMzNCA2OC4xNiA4NS4yNDgtOC4xMDY2NjdhMTYgMTYgMCAwIDEgMTUuNDk4NjY2IDIzLjY5MDY2N2wtNDAuOTI4IDczLjY2NCA0MC4yNTYgNjAuMzczMzMzYTE2IDE2IDAgMCAxLTEzLjMxMiAyNC44ODUzMzNoLTg1Ljc2bC0zNi43NjggNzcuNmExNiAxNiAwIDAgMS0yOC45Mzg2NjYtMC4wMzJsLTMyLjcxNDY2Ny02OS41MjUzMzMtNzMuMjkwNjY3LTguMTQ5MzMzYTE2IDE2IDAgMCAxLTExLjU1Mi0yNC43NjhsMzkuNzQ0LTU5LjYyNjY2Ny00OC44NzQ2NjYtNzMuMzEyYTE2IDE2IDAgMCAxIDE0LjkwMTMzMy0yNC44bDgwLjA3NDY2NyA4LjAxMDY2NyAzMS43MTItNjcuMzkyYTE2IDE2IDAgMCAxIDE0LjEwMTMzMy05LjE3MzMzNHogbTEuMjE2IDUxLjc4NjY2NmwtMjIuODkwNjY3IDQ4LjY0YTE2IDE2IDAgMCAxLTE2LjA3NDY2NiA5LjEybC01Ny42NDI2NjctNS43NiAzNi4wMjEzMzMgNTQuMDE2YTE2IDE2IDAgMCAxIDAgMTcuNzZsLTMxLjA3MiA0Ni42MTMzMzQgNTYuMDUzMzM0IDYuMjI5MzMzYTE2IDE2IDAgMCAxIDEyLjcxNDY2NiA5LjA4OGwyMi4xMDEzMzQgNDYuOTY1MzMzIDI2LjU4MTMzMy01Ni4xMzg2NjZhMTYgMTYgMCAwIDEgMTQuNDY0LTkuMTQxMzM0aDY1Ljk5NDY2N2wtMjkuMDc3MzM0LTQzLjYyNjY2NmExNiAxNiAwIDAgMS0wLjY3Mi0xNi42NGwzMC44OTA2NjctNTUuNjA1MzM0LTY1LjYyMTMzMyA2LjI0YTE2IDE2IDAgMCAxLTE1LjY1ODY2Ny04LjQzNzMzM2wtMjYuMTEyLTQ5LjMyMjY2N3oiLz48L3N2Zz4=;" vertex="1" parent="1">
          <mxGeometry x="714.25" y="996.81" width="45" height="51.23" as="geometry" />
        </mxCell>
      </root>
    </mxGraphModel>
  </diagram>
</mxfile>
